<?xml version="1.0" ?><svg xmlns="http://www.w3.org/2000/svg" xmlns:xlink="http://www.w3.org/1999/xlink" version="1.1" viewBox="0 0 512 512" style="enable-background:new 0 0 512 512;" xml:space="preserve"><g id="_x30_3_Shopping_Cart_x2C__Sale_x2C__Supermarket_x2C__Flower_x2C__Commerce_and_Shopping"><g><path style="fill:#F4D944;" d="M70.999,71l23.33,70l188.67,21.467L488.499,141c5.11-28.63,9.56-53.56,12.5-70H70.999z"/><polygon style="fill:#46BBE6;" points="341.419,141 331.399,173 341.419,211 374.279,220.067 407.139,211 422.814,177.8     419.629,141   "/><polygon style="fill:#46BBE6;" points="271.419,141 282.999,176 271.419,211 234.739,217 188.069,211 173.399,179.8 164.739,141       "/><path style="fill:#72E4FA;" d="M419.629,141h68.87c-3.91,21.88-8.2,45.93-12.5,70l-35.533,9.067L407.139,211    C411.969,183.9,416.459,158.78,419.629,141z"/><polygon style="fill:#72E4FA;" points="341.419,141 341.419,211 306.419,218.6 271.419,211 271.419,141   "/><path style="fill:#72E4FA;" d="M164.739,141l23.33,70l-34.67,9.067c-7.9-2.004,19.422,4.927-35.74-9.067l-23.33-70H164.739z"/><circle style="fill:#4E5F7E;" cx="390.999" cy="471" r="30"/><circle style="fill:#4E5F7E;" cx="150.999" cy="471" r="30"/><polygon style="fill:#72E4FA;" points="341.419,211 331.399,248.867 341.419,281 368.024,286.733 394.629,281 403.665,248.867     407.139,211   "/><polygon style="fill:#72E4FA;" points="271.419,211 278.865,241.4 271.419,281 241.414,289.4 211.409,281 193.532,250.2     188.069,211   "/><path style="fill:#46BBE6;" d="M341.419,281h53.21c-2.035,11.405,1.792,24.963,0,35c-2.682,15.017-10.786,25.404-12.5,35h-40.71    l-10.02-35L341.419,281z"/><polygon style="fill:#46BBE6;" points="271.419,281 280.732,311.8 271.419,351 234.739,351 217.532,319 211.409,281   "/><path style="fill:#46BBE6;" d="M407.139,211h68.86c-4.29,24.02-8.59,48.06-12.5,70l-33.7,8.4l-35.17-8.4    C398.659,258.43,403.029,234,407.139,211z"/><polygon style="fill:#46BBE6;" points="341.419,211 341.419,281 306.419,289.4 271.419,281 271.419,211   "/><polygon style="fill:#46BBE6;" points="211.409,281 174.865,293.667 140.999,281 117.669,211 188.069,211   "/><path style="fill:#72E4FA;" d="M394.629,281h68.87c-5.07,28.41-9.52,53.28-12.5,70h-68.87    C384.989,334.99,389.549,309.47,394.629,281z"/><rect x="271.419" y="281" style="fill:#72E4FA;" width="70" height="70"/><polygon style="fill:#72E4FA;" points="211.409,281 234.739,351 164.329,351 140.999,281   "/><g><path d="M115.999,361c355.967,0,335.977,0.362,338.674-0.706c2.997-1.185,5.267-3.733,6.042-6.963     c0.164-0.684,16.824-94.11,50.129-280.573c1.091-6.12-3.615-11.758-9.845-11.758H78.206L60.486,7.838     C59.124,3.754,55.303,1,50.999,1h-40c-5.523,0-10,4.477-10,10s4.477,10,10,10h32.792c10.141,30.424,95.041,285.132,106.664,320     h-34.456c-19.299,0-35,15.701-35,35s15.701,35,35,35h25v21.266c-17.233,4.452-30,20.13-30,38.734c0,22.056,17.944,40,40,40     s40-17.944,40-40c0-18.604-12.767-34.282-30-38.734V411h220v21.266c-17.233,4.452-30,20.13-30,38.734c0,22.056,17.944,40,40,40     s40-17.944,40-40c0-18.604-12.767-34.282-30-38.734V411h50c5.522,0,10-4.477,10-10s-4.478-10-10-10h-335c-8.271,0-15-6.729-15-15     S107.728,361,115.999,361z M131.538,221h49.327l16.667,50h-49.328L131.538,221z M331.414,151v50h-50v-50H331.414z M407.685,151     c-2.545,14.257-5.626,31.516-8.927,50h-47.345v-50H407.685z M467.626,201h-48.551c3.337-18.687,6.425-35.985,8.927-50h48.553     L467.626,201z M455.126,271h-48.551c2.93-16.409,5.976-33.464,8.929-50h48.551L455.126,271z M351.414,341v-50h31.274     c-3.454,19.338-6.565,36.761-8.93,50H351.414z M331.414,291v50h-50v-50H331.414z M281.414,271v-50h50v50H281.414z M351.414,271     v-50h43.774c-2.967,16.619-6.013,33.675-8.928,50H351.414z M261.414,201H195.28l-16.667-50h82.801V201z M157.531,151l16.667,50     h-49.327l-16.666-50H157.531z M201.946,221h59.467v50h-42.801L201.946,221z M261.414,291v50h-19.467l-16.667-50H261.414z      M394.073,341c2.426-13.582,5.528-30.951,8.93-50h48.552l-8.928,50H394.073z M489.054,81l-8.928,50     c-17.471,0-357.227,0-378.587,0L84.873,81H489.054z M154.87,291h49.328l16.667,50h-49.328L154.87,291z M170.999,471     c0,11.028-8.972,20-20,20s-20-8.972-20-20s8.972-20,20-20S170.999,459.972,170.999,471z M410.999,471c0,11.028-8.972,20-20,20     s-20-8.972-20-20s8.972-20,20-20S410.999,459.972,410.999,471z"/></g></g></g><g id="Layer_1"/></svg>